<?xml version="1.0" encoding="UTF-8" standalone="no"?>
<!-- Created with Inkscape (http://www.inkscape.org/) -->

<svg
   xmlns:dc="http://purl.org/dc/elements/1.1/"
   xmlns:cc="http://creativecommons.org/ns#"
   xmlns:rdf="http://www.w3.org/1999/02/22-rdf-syntax-ns#"
   xmlns:svg="http://www.w3.org/2000/svg"
   xmlns="http://www.w3.org/2000/svg"
   xmlns:xlink="http://www.w3.org/1999/xlink"
   xmlns:sodipodi="http://sodipodi.sourceforge.net/DTD/sodipodi-0.dtd"
   xmlns:inkscape="http://www.inkscape.org/namespaces/inkscape"
   width="48"
   height="48"
   id="svg2"
   version="1.1"
   inkscape:version="0.92.4 (5da689c313, 2019-01-14)"
   viewBox="0 0 13.546666 13.546668"
   sodipodi:docname="biglinux_logo2.svg">
  <defs
     id="defs4">
    <linearGradient
       gradientTransform="matrix(0.28222223,0,0,0.28222223,-37.69557,399.59206)"
       inkscape:collect="always"
       xlink:href="#linearGradient4410"
       id="linearGradient4839"
       x1="7"
       y1="7"
       x2="26"
       y2="26"
       gradientUnits="userSpaceOnUse" />
    <linearGradient
       id="linearGradient4410"
       inkscape:collect="always">
      <stop
         id="stop4412"
         offset="0"
         style="stop-color:#383e51;stop-opacity:1" />
      <stop
         id="stop4414"
         offset="1"
         style="stop-color:#655c6f;stop-opacity:0" />
    </linearGradient>
    <linearGradient
       gradientTransform="matrix(0.28222223,0,0,0.28222223,-37.69557,399.59206)"
       inkscape:collect="always"
       xlink:href="#linearGradient4303"
       id="linearGradient4378"
       x1="16"
       y1="31"
       x2="16"
       y2="2"
       gradientUnits="userSpaceOnUse" />
    <linearGradient
       inkscape:collect="always"
       id="linearGradient4303">
      <stop
         style="stop-color:#c6cdd1;stop-opacity:1"
         offset="0"
         id="stop4305" />
      <stop
         style="stop-color:#e0e5e7;stop-opacity:1"
         offset="1"
         id="stop4307" />
    </linearGradient>
    <linearGradient
       inkscape:collect="always"
       xlink:href="#linearGradient4143"
       id="linearGradient4268"
       gradientUnits="userSpaceOnUse"
       gradientTransform="matrix(0.26051283,0,0,0.26051283,-137.53401,265.56742)"
       x1="413.57144"
       y1="544.79797"
       x2="387.57144"
       y2="518.79797" />
    <linearGradient
       id="linearGradient4143"
       inkscape:collect="always">
      <stop
         id="stop4145"
         offset="0"
         style="stop-color:#0a54ac;stop-opacity:1" />
      <stop
         style="stop-color:#1c9cf5;stop-opacity:1;"
         offset="0.5"
         id="stop4270" />
      <stop
         id="stop4147"
         offset="1"
         style="stop-color:#9ae1fd;stop-opacity:1" />
    </linearGradient>
    <linearGradient
       gradientTransform="matrix(0.28222223,0,0,0.28222223,-146.23017,254.0224)"
       inkscape:collect="always"
       xlink:href="#linearGradient4143"
       id="linearGradient4481"
       x1="388.57144"
       y1="517.79797"
       x2="388.57144"
       y2="521.79797"
       gradientUnits="userSpaceOnUse" />
    <linearGradient
       inkscape:collect="always"
       xlink:href="#linearGradient4496"
       id="linearGradient4749"
       gradientUnits="userSpaceOnUse"
       gradientTransform="matrix(0.28222223,0,0,0.28222223,-146.23018,254.0224)"
       x1="413.57144"
       y1="544.79797"
       x2="387.57144"
       y2="518.79797" />
    <linearGradient
       inkscape:collect="always"
       id="linearGradient4496">
      <stop
         style="stop-color:#b83564;stop-opacity:1"
         offset="0"
         id="stop4498" />
      <stop
         id="stop4504"
         offset="0.5"
         style="stop-color:#ff6a5a;stop-opacity:1" />
      <stop
         style="stop-color:#ffb350;stop-opacity:1"
         offset="1"
         id="stop4500" />
    </linearGradient>
    <linearGradient
       inkscape:collect="always"
       xlink:href="#linearGradient4303"
       id="linearGradient1017"
       gradientUnits="userSpaceOnUse"
       gradientTransform="matrix(0.28222223,0,0,0.28222223,-37.69557,399.59206)"
       x1="16"
       y1="31"
       x2="16"
       y2="2" />
    <filter
       inkscape:collect="always"
       id="filter4211">
      <feGaussianBlur
         inkscape:collect="always"
         stdDeviation="0.93821121"
         id="feGaussianBlur4213" />
    </filter>
  </defs>
  <sodipodi:namedview
     id="base"
     pagecolor="#ffffff"
     bordercolor="#666666"
     borderopacity="1.0"
     inkscape:pageopacity="0"
     inkscape:pageshadow="2"
     inkscape:zoom="8"
     inkscape:cx="21.955077"
     inkscape:cy="22.732506"
     inkscape:document-units="px"
     inkscape:current-layer="g1040"
     showgrid="true"
     inkscape:showpageshadow="false"
     borderlayer="true"
     units="px"
     fit-margin-top="0"
     fit-margin-left="0"
     fit-margin-right="0"
     fit-margin-bottom="0"
     showguides="true"
     inkscape:window-width="1920"
     inkscape:window-height="909"
     inkscape:window-x="0"
     inkscape:window-y="0"
     inkscape:window-maximized="1"
     inkscape:snap-nodes="true">
    <sodipodi:guide
       position="-6.6748425e-06,47.999999"
       orientation="47.999977,0"
       id="guide4120"
       inkscape:locked="false" />
    <sodipodi:guide
       position="-6.6748425e-06,2.2810037e-05"
       orientation="0,48.000004"
       id="guide4122"
       inkscape:locked="false" />
    <sodipodi:guide
       position="47.999997,2.2810037e-05"
       orientation="-47.999977,0"
       id="guide4124"
       inkscape:locked="false" />
    <sodipodi:guide
       position="47.999997,47.999999"
       orientation="0,-48.000004"
       id="guide4126"
       inkscape:locked="false" />
    <sodipodi:guide
       position="3.9999733,44.000154"
       orientation="39.999962,0"
       id="guide4138"
       inkscape:locked="false" />
    <sodipodi:guide
       position="3.9999733,4.0001921"
       orientation="0,40.000003"
       id="guide4140"
       inkscape:locked="false" />
    <sodipodi:guide
       position="43.999976,4.0001921"
       orientation="-39.999962,0"
       id="guide4142"
       inkscape:locked="false" />
    <sodipodi:guide
       position="43.999976,44.000154"
       orientation="0,-40.000003"
       id="guide4144"
       inkscape:locked="false" />
    <sodipodi:guide
       position="6.9999922,8.0000369"
       orientation="0,34.000006"
       id="guide4150"
       inkscape:locked="false" />
    <sodipodi:guide
       position="40.999998,47.999999"
       orientation="0,-34.000006"
       id="guide4154"
       inkscape:locked="false" />
    <sodipodi:guide
       position="14.999993,32.999986"
       orientation="17.999951,0"
       id="guide4158"
       inkscape:locked="false" />
    <sodipodi:guide
       position="14.999993,15.000036"
       orientation="0,17.999998"
       id="guide4160"
       inkscape:locked="false" />
    <sodipodi:guide
       position="32.999991,15.000036"
       orientation="-17.999951,0"
       id="guide4162"
       inkscape:locked="false" />
    <sodipodi:guide
       position="32.999991,32.999986"
       orientation="0,-17.999998"
       id="guide4164"
       inkscape:locked="false" />
    <sodipodi:guide
       position="1.9999969,44.000046"
       orientation="39.999962,0"
       id="guide3279"
       inkscape:locked="false" />
    <sodipodi:guide
       position="1.9999969,4.0000839"
       orientation="0,44.000003"
       id="guide3281"
       inkscape:locked="false" />
    <sodipodi:guide
       position="46,4.0000839"
       orientation="-39.999962,0"
       id="guide3283"
       inkscape:locked="false" />
    <sodipodi:guide
       position="46,44.000046"
       orientation="0,-44.000003"
       id="guide3285"
       inkscape:locked="false" />
    <sodipodi:guide
       position="3.9999733,11.000083"
       orientation="6.9999988,0"
       id="guide4125"
       inkscape:locked="false" />
    <sodipodi:guide
       position="3.9999733,4.0000839"
       orientation="0,40.000003"
       id="guide4127"
       inkscape:locked="false" />
    <sodipodi:guide
       position="43.999976,4.0000839"
       orientation="-6.9999988,0"
       id="guide4129"
       inkscape:locked="false" />
    <sodipodi:guide
       position="43.999976,11.000083"
       orientation="0,-40.000003"
       id="guide4131"
       inkscape:locked="false" />
    <sodipodi:guide
       position="6.9999786,11.000083"
       orientation="0,34.000006"
       id="guide4147"
       inkscape:locked="false" />
    <sodipodi:guide
       position="40.999985,41.000001"
       orientation="0,-34.000006"
       id="guide4151"
       inkscape:locked="false" />
    <sodipodi:guide
       position="6.499998,41.000001"
       orientation="29.999918,0"
       id="guide4173"
       inkscape:locked="false" />
    <sodipodi:guide
       position="6.499998,11.000083"
       orientation="0,35.000001"
       id="guide4175"
       inkscape:locked="false" />
    <sodipodi:guide
       position="41.499999,11.000083"
       orientation="-29.999918,0"
       id="guide4177"
       inkscape:locked="false" />
    <sodipodi:guide
       position="41.499999,41.000001"
       orientation="0,-35.000001"
       id="guide4179"
       inkscape:locked="false" />
    <inkscape:grid
       type="xygrid"
       id="grid1042" />
  </sodipodi:namedview>
  <metadata
     id="metadata7">
    <rdf:RDF>
      <cc:Work
         rdf:about="">
        <dc:format>image/svg+xml</dc:format>
        <dc:type
           rdf:resource="http://purl.org/dc/dcmitype/StillImage" />
        <dc:title />
      </cc:Work>
    </rdf:RDF>
  </metadata>
  <g
     inkscape:label="Capa 1"
     inkscape:groupmode="layer"
     id="layer1"
     transform="translate(38.119153,-397.84494)">
    <g
       id="g1040"
       transform="matrix(1.3956883,0,0,1.3956883,14.963135,-159.39)">
      <circle
         style="opacity:1;fill:url(#linearGradient4749);fill-opacity:1;stroke:none;stroke-width:0.02719562;stroke-linecap:square;stroke-linejoin:miter;stroke-miterlimit:4;stroke-dasharray:none;stroke-dashoffset:0;stroke-opacity:1"
         id="circle4747"
         cx="-33.180012"
         cy="404.1076"
         r="3.668889" />
      <circle
         r="0.56444448"
         cy="400.72095"
         cx="-36.566681"
         id="path4479"
         style="opacity:1;fill:url(#linearGradient4481);fill-opacity:1;stroke:none;stroke-width:0.05644445;stroke-linecap:square;stroke-linejoin:miter;stroke-miterlimit:4;stroke-dasharray:none;stroke-dashoffset:0;stroke-opacity:1" />
      <path
         id="path4203"
         d="m -37.131126,400.15651 v 3.95111 a 3.9511149,3.9511149 0 0 0 3.951111,3.95111 3.9511149,3.9511149 0 0 0 3.951111,-3.95111 3.9511149,3.9511149 0 0 0 -3.951111,-3.95111 z m 0.564444,0.28222 a 0.28222223,0.28222223 0 0 1 0.282223,0.28222 0.28222223,0.28222223 0 0 1 -0.282223,0.28222 0.28222223,0.28222223 0 0 1 -0.282222,-0.28222 0.28222223,0.28222223 0 0 1 0.282222,-0.28222 z m 3.386667,0.28222 a 3.3866704,3.3866704 0 0 1 3.386667,3.38667 3.3866704,3.3866704 0 0 1 -3.386667,3.38667 3.3866704,3.3866704 0 0 1 -3.386667,-3.38667 3.3866704,3.3866704 0 0 1 3.386667,-3.38667 z"
         style="fill:url(#linearGradient1017);fill-opacity:1;fill-rule:evenodd;stroke:none;stroke-width:0.28222224px;stroke-linecap:butt;stroke-linejoin:miter;stroke-opacity:1"
         inkscape:connector-curvature="0" />
      <circle
         r="3.668889"
         cy="404.1076"
         cx="-33.180012"
         id="path4745"
         style="opacity:1;fill:#99a1a7;fill-opacity:1;stroke:none;stroke-width:0.02822222;stroke-linecap:square;stroke-linejoin:miter;stroke-miterlimit:4;stroke-dasharray:none;stroke-dashoffset:0;stroke-opacity:1" />
      <circle
         r="3.3866668"
         cy="404.1076"
         cx="-33.180012"
         id="path4483"
         style="opacity:1;fill:url(#linearGradient4268);fill-opacity:1;stroke:none;stroke-width:0.02510364;stroke-linecap:square;stroke-linejoin:miter;stroke-miterlimit:4;stroke-dasharray:none;stroke-dashoffset:0;stroke-opacity:1" />
      <g
         id="g4253"
         transform="matrix(0.28222223,0,0,0.28222223,-146.23017,254.0224)"
         style="fill:#0000ff">
        <path
           style="opacity:0.1;fill:#0000ff;fill-opacity:1;stroke:none;stroke-width:0.1;stroke-linecap:square;stroke-linejoin:miter;stroke-miterlimit:4;stroke-dasharray:none;stroke-dashoffset:0;stroke-opacity:1"
           d="m 400.57143,519.798 a 12,11.999999 0 0 0 -4,0.70117 v 3.29883 4 4 4 4 3.29883 a 12,11.999999 0 0 0 4,0.70117 v -4 -4 -4 -4 -4 z"
           id="rect4506"
           inkscape:connector-curvature="0" />
        <path
           style="opacity:0.1;fill:#0000ff;fill-opacity:1;stroke:none;stroke-width:0.1;stroke-linecap:square;stroke-linejoin:miter;stroke-miterlimit:4;stroke-dasharray:none;stroke-dashoffset:0;stroke-opacity:1"
           d="m 396.57143,520.49917 a 12,11.999999 0 0 0 -4,2.37305 v 0.92578 4 4 4 4 0.92773 a 12,11.999999 0 0 0 4,2.3711 v -3.29883 -4 -4 -4 -4 z"
           id="rect4516"
           inkscape:connector-curvature="0" />
        <path
           style="opacity:0.1;fill:#0000ff;fill-opacity:1;stroke:none;stroke-width:0.1;stroke-linecap:square;stroke-linejoin:miter;stroke-miterlimit:4;stroke-dasharray:none;stroke-dashoffset:0;stroke-opacity:1"
           d="m 404.57143,520.49917 v 3.29883 4 4 4 4 3.29883 a 12,11.999999 0 0 0 4,-2.37305 v -0.92578 -4 -4 -4 -4 -0.92773 a 12,11.999999 0 0 0 -4,-2.3711 z"
           id="rect4520"
           inkscape:connector-curvature="0" />
        <path
           style="opacity:0.1;fill:#0000ff;fill-opacity:1;stroke:none;stroke-width:0.1;stroke-linecap:square;stroke-linejoin:miter;stroke-miterlimit:4;stroke-dasharray:none;stroke-dashoffset:0;stroke-opacity:1"
           d="m 400.57143,519.798 v 4 4 4 4 4 4 a 12,11.999999 0 0 0 4,-0.70117 v -3.29883 -4 -4 -4 -4 -3.29883 a 12,11.999999 0 0 0 -4,-0.70117 z"
           id="rect4522"
           inkscape:connector-curvature="0" />
        <path
           style="opacity:0.1;fill:#0000ff;fill-opacity:1;stroke:none;stroke-width:0.1;stroke-linecap:square;stroke-linejoin:miter;stroke-miterlimit:4;stroke-dasharray:none;stroke-dashoffset:0;stroke-opacity:1"
           d="m 408.57143,522.87027 v 0.92773 4 4 4 4 0.92578 a 12,11.999999 0 0 0 4,-8.92578 12,11.999999 0 0 0 -4,-8.92773 z"
           id="rect4608"
           inkscape:connector-curvature="0" />
        <path
           style="opacity:0.1;fill:#0000ff;fill-opacity:1;stroke:none;stroke-width:0.1;stroke-linecap:square;stroke-linejoin:miter;stroke-miterlimit:4;stroke-dasharray:none;stroke-dashoffset:0;stroke-opacity:1"
           d="m 392.57143,522.87222 a 12,11.999999 0 0 0 -4,8.92578 12,11.999999 0 0 0 4,8.92773 v -0.92773 -4 -4 -4 -4 z"
           id="rect4632"
           inkscape:connector-curvature="0" />
        <g
           id="g4245"
           style="fill:#0000ff">
          <path
             inkscape:connector-curvature="0"
             id="path4662"
             d="m 389.2726,527.798 a 12,11.999999 0 0 0 -0.70117,4 h 4 4 4 4 4 4 a 12,11.999999 0 0 0 -0.70117,-4 h -3.29883 -4 -4 -4 -4 z"
             style="opacity:0.1;fill:#0000ff;fill-opacity:1;stroke:none;stroke-width:0.1;stroke-linecap:square;stroke-linejoin:miter;stroke-miterlimit:4;stroke-dasharray:none;stroke-dashoffset:0;stroke-opacity:1" />
          <path
             inkscape:connector-curvature="0"
             id="path4664"
             d="m 391.6437,523.798 a 12,11.999999 0 0 0 -2.3711,4 h 3.29883 4 4 4 4 3.29883 a 12,11.999999 0 0 0 -2.37305,-4 h -0.92578 -4 -4 -4 -4 z"
             style="opacity:0.1;fill:#0000ff;fill-opacity:1;stroke:none;stroke-width:0.1;stroke-linecap:square;stroke-linejoin:miter;stroke-miterlimit:4;stroke-dasharray:none;stroke-dashoffset:0;stroke-opacity:1" />
          <path
             inkscape:connector-curvature="0"
             id="path4666"
             d="m 389.2726,535.798 a 12,11.999999 0 0 0 2.37305,4 h 0.92578 4 4 4 4 0.92773 a 12,11.999999 0 0 0 2.3711,-4 h -3.29883 -4 -4 -4 -4 z"
             style="opacity:0.1;fill:#0000ff;fill-opacity:1;stroke:none;stroke-width:0.1;stroke-linecap:square;stroke-linejoin:miter;stroke-miterlimit:4;stroke-dasharray:none;stroke-dashoffset:0;stroke-opacity:1" />
          <path
             inkscape:connector-curvature="0"
             id="path4668"
             d="m 388.57143,531.798 a 12,11.999999 0 0 0 0.70117,4 h 3.29883 4 4 4 4 3.29883 a 12,11.999999 0 0 0 0.70117,-4 h -4 -4 -4 -4 -4 z"
             style="opacity:0.1;fill:#0000ff;fill-opacity:1;stroke:none;stroke-width:0.1;stroke-linecap:square;stroke-linejoin:miter;stroke-miterlimit:4;stroke-dasharray:none;stroke-dashoffset:0;stroke-opacity:1" />
          <path
             inkscape:connector-curvature="0"
             id="path4670"
             d="m 391.64565,539.798 a 12,11.999999 0 0 0 8.92578,4 12,11.999999 0 0 0 8.92773,-4 h -0.92773 -4 -4 -4 -4 z"
             style="opacity:0.1;fill:#0000ff;fill-opacity:1;stroke:none;stroke-width:0.1;stroke-linecap:square;stroke-linejoin:miter;stroke-miterlimit:4;stroke-dasharray:none;stroke-dashoffset:0;stroke-opacity:1" />
          <path
             inkscape:connector-curvature="0"
             id="path4672"
             d="m 400.57143,519.798 a 12,11.999999 0 0 0 -8.92773,4 h 0.92773 4 4 4 4 0.92578 a 12,11.999999 0 0 0 -8.92578,-4 z"
             style="opacity:0.1;fill:#0000ff;fill-opacity:1;stroke:none;stroke-width:0.1;stroke-linecap:square;stroke-linejoin:miter;stroke-miterlimit:4;stroke-dasharray:none;stroke-dashoffset:0;stroke-opacity:1" />
        </g>
      </g>
      <path
         style="fill:url(#linearGradient4378);fill-opacity:1;fill-rule:evenodd;stroke:none;stroke-width:0.28222224px;stroke-linecap:butt;stroke-linejoin:miter;stroke-opacity:1"
         d="m -37.131126,400.15651 v 3.95111 a 3.9511149,3.9511149 0 0 0 3.951111,3.95111 3.9511149,3.9511149 0 0 0 3.951111,-3.95111 3.9511149,3.9511149 0 0 0 -3.951111,-3.95111 z m 0.564444,0.28222 a 0.28222223,0.28222223 0 0 1 0.282223,0.28222 0.28222223,0.28222223 0 0 1 -0.282223,0.28222 0.28222223,0.28222223 0 0 1 -0.282222,-0.28222 0.28222223,0.28222223 0 0 1 0.282222,-0.28222 z m 3.386667,0.28222 a 3.3866704,3.3866704 0 0 1 3.386667,3.38667 3.3866704,3.3866704 0 0 1 -3.386667,3.38667 3.3866704,3.3866704 0 0 1 -3.386667,-3.38667 3.3866704,3.3866704 0 0 1 3.386667,-3.38667 z"
         id="path4821"
         inkscape:connector-curvature="0" />
      <path
         id="rect4819"
         d="m -30.785536,401.71314 -0.0011,10e-4 a 3.3866704,3.3866704 0 0 1 0.03583,0.0336 z m 0.03473,0.0347 a 3.3866704,3.3866704 0 0 1 0.957461,2.35975 3.3866704,3.3866704 0 0 1 -3.386667,3.38667 3.3866704,3.3866704 0 0 1 -2.393377,-0.99329 l -0.0011,10e-4 1.433711,1.43426 a 3.9511149,3.9511149 0 0 0 0.960769,0.12237 3.9511149,3.9511149 0 0 0 3.951111,-3.95111 3.9511149,3.9511149 0 0 0 -0.124023,-0.96242 z"
         style="opacity:0.2;fill:url(#linearGradient4839);fill-opacity:1;stroke:none;stroke-width:0.02822222;stroke-linecap:square;stroke-linejoin:miter;stroke-miterlimit:4;stroke-dasharray:none;stroke-dashoffset:0;stroke-opacity:1"
         inkscape:connector-curvature="0" />
    </g>
    <g
       id="g2402"
       transform="matrix(0.0195057,0,0,0.01768379,-36.252916,401.63343)"
       style="fill:#ffffff;filter:url(#filter4211)">
      <path
         inkscape:connector-curvature="0"
         id="path6"
         d="M 349.3,56.2 C 365.6,44 385.5,36 406,35.6 c 6.7,0.7 13.3,1.4 19.9,2.1 7.4,1.9 14.7,5 21,9.4 10,8.2 18,18.7 23.7,30.2 8.6,16.6 13.2,35.2 13.8,53.7 -0.9,6.3 -0.8,12.7 -2.5,18.8 -3.8,-5.3 -4,-12.3 -6.7,-18.1 -3.6,-7.7 -7,-15.8 -12.8,-22.1 -7.5,-10.4 -19.1,-17.6 -31.7,-19.9 -4.9,-0.1 -9.8,-1.8 -14.7,-0.6 -13.9,0.7 -26.8,7.1 -38,14.9 -3.5,3.2 -7.5,5.8 -10.9,9 -3.4,4.3 -7.6,7.9 -10.6,12.5 -10.1,12.6 -16.3,28 -20,43.7 -0.5,6.3 -1.4,12.5 -1.8,18.8 1.1,4.4 -0.8,10.1 3.5,13.2 3,1.1 6.3,0.2 9.3,-0.8 8,-3.8 15.3,-9.1 22.2,-14.8 8.2,-4.8 14.8,-11.9 22.6,-17.2 4.3,-2.4 7.6,-6 11.8,-8.3 8.1,-6 17.1,-10.6 26.3,-14.7 7.1,-2.4 14.9,-4 22.4,-2.3 8.9,2.6 16.6,9.1 20.7,17.4 6.4,12 8.9,25.6 10.2,38.9 0.3,6.9 -1.3,13.8 -1.6,20.7 -4.7,22.7 -12.1,45.2 -23.3,65.6 -4.3,7 -8.4,14.1 -14.1,20 -1.7,1.5 -3,3.8 -5.4,4.2 0.9,-4.5 3.4,-8.6 4.6,-13 1.3,-4.9 2.9,-9.7 3.2,-14.8 2.5,-7.4 2.3,-15.4 3.5,-23.1 -0.6,-8 0.6,-16.1 -0.7,-24 -0.5,-5.6 -1.1,-11.4 -3.3,-16.6 -1.4,-3.2 -2.1,-6.8 -4.6,-9.4 -2.5,-3.3 -6.4,-5 -10.2,-6.4 -3.1,0.2 -6.2,0.6 -9.3,1.2 -7.5,3.2 -14,8.3 -20.2,13.5 -5.6,3.4 -10.6,7.9 -16.8,10.3 -8.9,3.8 -19.2,6.7 -28.7,3.3 -13.3,-2.9 -24.7,-11.2 -35.1,-19.6 -4.5,-4.5 -9.5,-8.6 -12.8,-14.1 -8.8,-13.3 -14,-29.2 -13.3,-45.2 -0.2,-4.9 -0.5,-10.1 1.5,-14.7 3,-19.2 12.4,-36.9 23.4,-52.8 6,-7 11.6,-14.5 18.9,-20.1 3,-3.1 6,-6.2 9.9,-8.2 z"
         style="fill:#ffffff;stroke:#000000;stroke-width:0.09375" />
      <path
         inkscape:connector-curvature="0"
         id="path8"
         d="m 65.2,39.2 c 0.9,-1 2.1,-1.6 3.5,-1.9 -1.4,6 -4.6,11.4 -5.8,17.5 -1.2,3.4 -1.6,6.9 -2.8,10.2 -1.1,3.4 -0.4,7 -1.3,10.3 -2,6 -2.7,12.4 -2.1,18.7 -1.1,14.3 -0.8,29.4 6,42.4 2.5,3.8 7,5.7 11.3,6.9 4.1,-0.7 8.7,-0.3 12.3,-3 11.1,-5.9 19.6,-15.6 31.1,-21 7.7,-4.5 16.8,-6.1 25.6,-5.7 9.2,1.8 18.2,5 25.8,10.6 9.3,5.4 17.4,12.5 24.5,20.5 1.9,3.1 3.9,6.1 6,9.1 6.6,11.6 10,24.9 10.1,38.3 -0.5,6.9 -1.4,13.9 -2.1,20.8 -1.7,7 -4.3,13.7 -6.8,20.5 -5.8,13.6 -14.1,26.1 -23.7,37.3 -4.7,4.7 -9.1,9.7 -14.6,13.5 -17.3,15.5 -39.9,25.5 -63.2,26.2 -6.8,-0.9 -13.7,-1.4 -20.5,-2.3 -3.6,-1.3 -7.3,-2.3 -10.8,-3.7 C 59.1,300.2 51.3,294 45.9,286.1 40.1,280.1 36.4,272.6 32.6,265.3 25,248.3 20.2,229.7 20.7,211 c -1,-4.8 1.9,-9.1 2.1,-13.8 0.4,-0.1 1.2,-0.1 1.6,-0.1 2.8,10.3 6.1,20.6 11.6,29.8 2.7,5.4 7.2,9.6 10.7,14.4 7.2,7.6 16.7,12.9 27,14.8 3.8,0.5 7.5,0.6 11.3,1.2 8.2,-0.6 16.5,-2.1 24.2,-5.3 35.9,-15.6 60,-53.8 61,-92.6 -1.1,-4.1 0.5,-8.6 -1.3,-12.4 -2.2,-3.8 -7.1,-2.9 -10.6,-1.7 -7.6,2.7 -13.8,8 -20.2,12.8 -8.4,5.1 -15.2,12.2 -23.3,17.8 -4.6,2.5 -8.2,6.6 -12.8,9.1 -8.4,6.1 -17.4,11.2 -26.9,15.2 -9.3,3.4 -20.3,5.3 -29.3,0 C 37,195.7 31.6,187 28,178.1 24.5,168.8 22.3,158.9 21.6,149 c 1.1,-9.3 1.9,-18.6 3,-27.9 C 28.8,103.3 35.7,86.2 43.9,69.9 49.8,59 56.4,48.1 65.2,39.2 Z"
         style="fill:#ffffff;stroke:#000000;stroke-width:0.09375" />
      <path
         inkscape:connector-curvature="0"
         id="path10"
         d="m 233.5,53.9 c 5.1,-1.1 10.4,-1.8 15.7,-0.6 9.3,0 18.2,4.4 25.1,10.4 3.4,4.4 7.6,8.7 8.5,14.4 1.6,6.7 -0.3,13.9 -4.5,19.3 -4.9,7.6 -13.2,12.5 -21.6,15.3 -6.4,1.8 -13.1,3.4 -19.7,1.9 -7.3,0.1 -14.3,-2.6 -20.5,-6.1 -7.6,-4.7 -13.8,-12.4 -14.6,-21.5 -1.6,-6.7 2.4,-12.9 6,-18.2 6.7,-7.5 15.6,-13 25.6,-14.9 z"
         style="fill:#ffffff;stroke:#000000;stroke-width:0.09375" />
      <path
         inkscape:connector-curvature="0"
         id="path12"
         d="m 221.3,134.3 c 6.9,-8.8 18.8,-11.9 29.5,-10.4 5.3,1.8 11,3.2 15.4,6.8 7.2,3.8 10.9,11.6 12.1,19.2 -0.8,9 -2.6,18 -1.8,27 1.7,18.9 11.7,35.8 22.8,50.8 5.3,8.9 13.5,15.8 18.7,24.9 -10.2,-2 -20.2,-5 -29.9,-8.5 -12,-4 -23.2,-10.3 -32.9,-18.3 -5.3,-4.7 -11.3,-8.8 -15.3,-14.7 -7.5,-8 -13.1,-17.5 -17.5,-27.4 -4.6,-11.6 -8,-24.2 -6.6,-36.7 1.3,-4.4 2.7,-9 5.5,-12.7 z"
         style="fill:#ffffff;stroke:#000000;stroke-width:0.09375" />
    </g>
  </g>
</svg>
