<?xml version="1.0" encoding="UTF-8" standalone="no"?>
<svg
   xmlns:dc="http://purl.org/dc/elements/1.1/"
   xmlns:cc="http://creativecommons.org/ns#"
   xmlns:rdf="http://www.w3.org/1999/02/22-rdf-syntax-ns#"
   xmlns:svg="http://www.w3.org/2000/svg"
   xmlns="http://www.w3.org/2000/svg"
   xmlns:xlink="http://www.w3.org/1999/xlink"
   xmlns:sodipodi="http://sodipodi.sourceforge.net/DTD/sodipodi-0.dtd"
   xmlns:inkscape="http://www.inkscape.org/namespaces/inkscape"
   viewBox="0 0 48 48"
   version="1.1"
   id="svg51"
   sodipodi:docname="biglinux_logo11.svg"
   inkscape:version="0.92.4 (5da689c313, 2019-01-14)">
  <metadata
     id="metadata55">
    <rdf:RDF>
      <cc:Work
         rdf:about="">
        <dc:format>image/svg+xml</dc:format>
        <dc:type
           rdf:resource="http://purl.org/dc/dcmitype/StillImage" />
        <dc:title></dc:title>
      </cc:Work>
    </rdf:RDF>
  </metadata>
  <sodipodi:namedview
     pagecolor="#ffffff"
     bordercolor="#666666"
     borderopacity="1"
     objecttolerance="10"
     gridtolerance="10"
     guidetolerance="10"
     inkscape:pageopacity="0"
     inkscape:pageshadow="2"
     inkscape:window-width="1920"
     inkscape:window-height="909"
     id="namedview53"
     showgrid="false"
     inkscape:zoom="4.9166667"
     inkscape:cx="-16.677966"
     inkscape:cy="24"
     inkscape:window-x="0"
     inkscape:window-y="0"
     inkscape:window-maximized="1"
     inkscape:current-layer="svg51" />
  <defs
     id="defs7">
    <linearGradient
       y2="46.576271"
       y1="1"
       gradientUnits="userSpaceOnUse"
       x2="24.20339"
       x1="24"
       id="linearGradient208"
       spreadMethod="pad">
      <stop
         offset="0"
         style="stop-color:#9579e2;stop-opacity:1;"
         id="stop206" />
      <stop
         id="stop1070"
         style="stop-color:#1f6599;stop-opacity:1;"
         offset="0.5" />
      <stop
         style="stop-color:#00abec;stop-opacity:1"
         id="stop204"
         offset="1" />
    </linearGradient>
    <linearGradient
       y2="46.576271"
       y1="1"
       gradientUnits="userSpaceOnUse"
       x2="24.20339"
       x1="24"
       id="linearGradient200">
      <stop
         offset="0"
         style="stop-color:#01b9ff;stop-opacity:1"
         id="stop198" />
      <stop
         style="stop-color:#00abec;stop-opacity:1"
         id="stop196"
         offset="1" />
    </linearGradient>
    <linearGradient
       id="linearGradient4246"
       x1="24"
       x2="24.20339"
       gradientUnits="userSpaceOnUse"
       y1="1"
       y2="46.576271"
       xlink:href="#linearGradient208"
       spreadMethod="reflect">
      <stop
         style="stop-color:#00abec;stop-opacity:1"
         id="stop2" />
      <stop
         offset="1"
         style="stop-color:#01b9ff;stop-opacity:1"
         id="stop4" />
    </linearGradient>
    <filter
       inkscape:collect="always"
       id="filter4211">
      <feGaussianBlur
         inkscape:collect="always"
         stdDeviation="0.93821121"
         id="feGaussianBlur4213" />
    </filter>
    <linearGradient
       inkscape:collect="always"
       xlink:href="#linearGradient208"
       id="linearGradient1112"
       x1="-0.83050847"
       y1="31.322035"
       x2="47"
       y2="24"
       gradientUnits="userSpaceOnUse" />
  </defs>
  <g
     id="g15">
    <path
       d="m 36.31 5 c 5.859 4.062 9.688 10.831 9.688 18.5 c 0 12.426 -10.07 22.5 -22.5 22.5 c -7.669 0 -14.438 -3.828 -18.5 -9.688 c 1.037 1.822 2.306 3.499 3.781 4.969 c 4.085 3.712 9.514 5.969 15.469 5.969 c 12.703 0 23 -10.298 23 -23 c 0 -5.954 -2.256 -11.384 -5.969 -15.469 c -1.469 -1.475 -3.147 -2.744 -4.969 -3.781 z m 4.969 3.781 c 3.854 4.113 6.219 9.637 6.219 15.719 c 0 12.703 -10.297 23 -23 23 c -6.081 0 -11.606 -2.364 -15.719 -6.219 c 4.16 4.144 9.883 6.719 16.219 6.719 c 12.703 0 23 -10.298 23 -23 c 0 -6.335 -2.575 -12.06 -6.719 -16.219 z"
       style="opacity:0.05"
       id="path9" />
    <path
       d="m 41.28 8.781 c 3.712 4.085 5.969 9.514 5.969 15.469 c 0 12.703 -10.297 23 -23 23 c -5.954 0 -11.384 -2.256 -15.469 -5.969 c 4.113 3.854 9.637 6.219 15.719 6.219 c 12.703 0 23 -10.298 23 -23 c 0 -6.081 -2.364 -11.606 -6.219 -15.719 z"
       style="opacity:0.1"
       id="path11" />
    <path
       d="m 31.25 2.375 c 8.615 3.154 14.75 11.417 14.75 21.13 c 0 12.426 -10.07 22.5 -22.5 22.5 c -9.708 0 -17.971 -6.135 -21.12 -14.75 a 23 23 0 0 0 44.875 -7 a 23 23 0 0 0 -16 -21.875 z"
       style="opacity:0.2"
       id="path13" />
  </g>
  <g
     transform="matrix(0,-1,1,0,0,48)"
     style="fill:url(#linearGradient4246);fill-opacity:1"
     id="g19">
    <path
       d="M 24.20339,-1.8474576 C 36.90639,-1.8474576 47,11.297 47,24 c 0,12.703 -9.483441,25.033898 -22.186441,25.033898 -6.724768,0 -26.1989894,4.843103 -30.4045071,0.242381 C -9.3295986,45.186296 -1.6440678,29.978232 -1.6440678,24 c 0,-3.237353 -14.4479182,-28.6596589 -11.8235512,-31.7097944 7.6733488,-8.9182456 28.205361,5.8623368 37.671009,5.8623368 z"
       id="path17"
       style="fill:url(#linearGradient1112);fill-opacity:1;fill-rule:evenodd"
       inkscape:connector-curvature="0"
       sodipodi:nodetypes="sssssss" />
  </g>
  <g
     id="g49" />
  <g
     id="g2402"
     transform="matrix(0.08439216,0,0,0.07762679,2.5260929,10.773955)"
     style="fill:#ffffff;filter:url(#filter4211)">
    <path
       inkscape:connector-curvature="0"
       id="path6"
       d="M 349.3,56.2 C 365.6,44 385.5,36 406,35.6 c 6.7,0.7 13.3,1.4 19.9,2.1 7.4,1.9 14.7,5 21,9.4 10,8.2 18,18.7 23.7,30.2 8.6,16.6 13.2,35.2 13.8,53.7 -0.9,6.3 -0.8,12.7 -2.5,18.8 -3.8,-5.3 -4,-12.3 -6.7,-18.1 -3.6,-7.7 -7,-15.8 -12.8,-22.1 -7.5,-10.4 -19.1,-17.6 -31.7,-19.9 -4.9,-0.1 -9.8,-1.8 -14.7,-0.6 -13.9,0.7 -26.8,7.1 -38,14.9 -3.5,3.2 -7.5,5.8 -10.9,9 -3.4,4.3 -7.6,7.9 -10.6,12.5 -10.1,12.6 -16.3,28 -20,43.7 -0.5,6.3 -1.4,12.5 -1.8,18.8 1.1,4.4 -0.8,10.1 3.5,13.2 3,1.1 6.3,0.2 9.3,-0.8 8,-3.8 15.3,-9.1 22.2,-14.8 8.2,-4.8 14.8,-11.9 22.6,-17.2 4.3,-2.4 7.6,-6 11.8,-8.3 8.1,-6 17.1,-10.6 26.3,-14.7 7.1,-2.4 14.9,-4 22.4,-2.3 8.9,2.6 16.6,9.1 20.7,17.4 6.4,12 8.9,25.6 10.2,38.9 0.3,6.9 -1.3,13.8 -1.6,20.7 -4.7,22.7 -12.1,45.2 -23.3,65.6 -4.3,7 -8.4,14.1 -14.1,20 -1.7,1.5 -3,3.8 -5.4,4.2 0.9,-4.5 3.4,-8.6 4.6,-13 1.3,-4.9 2.9,-9.7 3.2,-14.8 2.5,-7.4 2.3,-15.4 3.5,-23.1 -0.6,-8 0.6,-16.1 -0.7,-24 -0.5,-5.6 -1.1,-11.4 -3.3,-16.6 -1.4,-3.2 -2.1,-6.8 -4.6,-9.4 -2.5,-3.3 -6.4,-5 -10.2,-6.4 -3.1,0.2 -6.2,0.6 -9.3,1.2 -7.5,3.2 -14,8.3 -20.2,13.5 -5.6,3.4 -10.6,7.9 -16.8,10.3 -8.9,3.8 -19.2,6.7 -28.7,3.3 -13.3,-2.9 -24.7,-11.2 -35.1,-19.6 -4.5,-4.5 -9.5,-8.6 -12.8,-14.1 -8.8,-13.3 -14,-29.2 -13.3,-45.2 -0.2,-4.9 -0.5,-10.1 1.5,-14.7 3,-19.2 12.4,-36.9 23.4,-52.8 6,-7 11.6,-14.5 18.9,-20.1 3,-3.1 6,-6.2 9.9,-8.2 z"
       style="fill:#ffffff;stroke:#000000;stroke-width:0.09375" />
    <path
       inkscape:connector-curvature="0"
       id="path8"
       d="m 65.2,39.2 c 0.9,-1 2.1,-1.6 3.5,-1.9 -1.4,6 -4.6,11.4 -5.8,17.5 -1.2,3.4 -1.6,6.9 -2.8,10.2 -1.1,3.4 -0.4,7 -1.3,10.3 -2,6 -2.7,12.4 -2.1,18.7 -1.1,14.3 -0.8,29.4 6,42.4 2.5,3.8 7,5.7 11.3,6.9 4.1,-0.7 8.7,-0.3 12.3,-3 11.1,-5.9 19.6,-15.6 31.1,-21 7.7,-4.5 16.8,-6.1 25.6,-5.7 9.2,1.8 18.2,5 25.8,10.6 9.3,5.4 17.4,12.5 24.5,20.5 1.9,3.1 3.9,6.1 6,9.1 6.6,11.6 10,24.9 10.1,38.3 -0.5,6.9 -1.4,13.9 -2.1,20.8 -1.7,7 -4.3,13.7 -6.8,20.5 -5.8,13.6 -14.1,26.1 -23.7,37.3 -4.7,4.7 -9.1,9.7 -14.6,13.5 -17.3,15.5 -39.9,25.5 -63.2,26.2 -6.8,-0.9 -13.7,-1.4 -20.5,-2.3 -3.6,-1.3 -7.3,-2.3 -10.8,-3.7 C 59.1,300.2 51.3,294 45.9,286.1 40.1,280.1 36.4,272.6 32.6,265.3 25,248.3 20.2,229.7 20.7,211 c -1,-4.8 1.9,-9.1 2.1,-13.8 0.4,-0.1 1.2,-0.1 1.6,-0.1 2.8,10.3 6.1,20.6 11.6,29.8 2.7,5.4 7.2,9.6 10.7,14.4 7.2,7.6 16.7,12.9 27,14.8 3.8,0.5 7.5,0.6 11.3,1.2 8.2,-0.6 16.5,-2.1 24.2,-5.3 35.9,-15.6 60,-53.8 61,-92.6 -1.1,-4.1 0.5,-8.6 -1.3,-12.4 -2.2,-3.8 -7.1,-2.9 -10.6,-1.7 -7.6,2.7 -13.8,8 -20.2,12.8 -8.4,5.1 -15.2,12.2 -23.3,17.8 -4.6,2.5 -8.2,6.6 -12.8,9.1 -8.4,6.1 -17.4,11.2 -26.9,15.2 -9.3,3.4 -20.3,5.3 -29.3,0 C 37,195.7 31.6,187 28,178.1 24.5,168.8 22.3,158.9 21.6,149 c 1.1,-9.3 1.9,-18.6 3,-27.9 C 28.8,103.3 35.7,86.2 43.9,69.9 49.8,59 56.4,48.1 65.2,39.2 Z"
       style="fill:#ffffff;stroke:#000000;stroke-width:0.09375" />
    <path
       inkscape:connector-curvature="0"
       id="path10"
       d="m 233.5,53.9 c 5.1,-1.1 10.4,-1.8 15.7,-0.6 9.3,0 18.2,4.4 25.1,10.4 3.4,4.4 7.6,8.7 8.5,14.4 1.6,6.7 -0.3,13.9 -4.5,19.3 -4.9,7.6 -13.2,12.5 -21.6,15.3 -6.4,1.8 -13.1,3.4 -19.7,1.9 -7.3,0.1 -14.3,-2.6 -20.5,-6.1 -7.6,-4.7 -13.8,-12.4 -14.6,-21.5 -1.6,-6.7 2.4,-12.9 6,-18.2 6.7,-7.5 15.6,-13 25.6,-14.9 z"
       style="fill:#ffffff;stroke:#000000;stroke-width:0.09375" />
    <path
       inkscape:connector-curvature="0"
       id="path12"
       d="m 221.3,134.3 c 6.9,-8.8 18.8,-11.9 29.5,-10.4 5.3,1.8 11,3.2 15.4,6.8 7.2,3.8 10.9,11.6 12.1,19.2 -0.8,9 -2.6,18 -1.8,27 1.7,18.9 11.7,35.8 22.8,50.8 5.3,8.9 13.5,15.8 18.7,24.9 -10.2,-2 -20.2,-5 -29.9,-8.5 -12,-4 -23.2,-10.3 -32.9,-18.3 -5.3,-4.7 -11.3,-8.8 -15.3,-14.7 -7.5,-8 -13.1,-17.5 -17.5,-27.4 -4.6,-11.6 -8,-24.2 -6.6,-36.7 1.3,-4.4 2.7,-9 5.5,-12.7 z"
       style="fill:#ffffff;stroke:#000000;stroke-width:0.09375" />
  </g>
</svg>
