<?xml version="1.0" encoding="UTF-8" standalone="no"?>
<!-- Created with Inkscape (http://www.inkscape.org/) -->

<svg
   xmlns:dc="http://purl.org/dc/elements/1.1/"
   xmlns:cc="http://creativecommons.org/ns#"
   xmlns:rdf="http://www.w3.org/1999/02/22-rdf-syntax-ns#"
   xmlns:svg="http://www.w3.org/2000/svg"
   xmlns="http://www.w3.org/2000/svg"
   xmlns:xlink="http://www.w3.org/1999/xlink"
   xmlns:sodipodi="http://sodipodi.sourceforge.net/DTD/sodipodi-0.dtd"
   xmlns:inkscape="http://www.inkscape.org/namespaces/inkscape"
   width="48"
   height="48"
   id="svg2"
   version="1.1"
   inkscape:version="0.92.4 (5da689c313, 2019-01-14)"
   sodipodi:docname="biglinux_logo15.svg">
  <defs
     id="defs4">
    <linearGradient
       inkscape:collect="always"
       id="linearGradient4336">
      <stop
         style="stop-color:#d8eaff;stop-opacity:1"
         offset="0"
         id="stop4338" />
      <stop
         style="stop-color:#deedff;stop-opacity:1"
         offset="1"
         id="stop4340" />
    </linearGradient>
    <linearGradient
       inkscape:collect="always"
       id="linearGradient4181">
      <stop
         style="stop-color:#ffffff;stop-opacity:1;"
         offset="0"
         id="stop4183" />
      <stop
         style="stop-color:#ffffff;stop-opacity:0;"
         offset="1"
         id="stop4185" />
    </linearGradient>
    <linearGradient
       id="linearGradient4166"
       inkscape:collect="always">
      <stop
         id="stop4168"
         offset="0"
         style="stop-color:#68a2ba;stop-opacity:1" />
      <stop
         id="stop4170"
         offset="1"
         style="stop-color:#66a0b8;stop-opacity:0" />
    </linearGradient>
    <linearGradient
       id="linearGradient4130"
       inkscape:collect="always">
      <stop
         id="stop4132"
         offset="0"
         style="stop-color:#0f1b29;stop-opacity:0.45348838" />
      <stop
         id="stop4134"
         offset="1"
         style="stop-color:#545f6c;stop-opacity:1" />
    </linearGradient>
    <linearGradient
       inkscape:collect="always"
       xlink:href="#linearGradient3700-46-1-4"
       id="linearGradient4121"
       x1="24.001675"
       y1="-1052.3605"
       x2="24.001675"
       y2="-1004.3583"
       gradientUnits="userSpaceOnUse" />
    <linearGradient
       inkscape:collect="always"
       xlink:href="#linearGradient4130"
       id="linearGradient4125"
       gradientUnits="userSpaceOnUse"
       x1="-1"
       y1="-1034.9065"
       x2="48"
       y2="-1034.9065"
       gradientTransform="matrix(0.9975062,0,0,-0.2291667,1.8591272e-6,811.19617)" />
    <linearGradient
       inkscape:collect="always"
       xlink:href="#linearGradient4166"
       id="linearGradient4163"
       gradientUnits="userSpaceOnUse"
       x1="48.077656"
       y1="-1045.0597"
       x2="32.99337"
       y2="-1029.9755"
       gradientTransform="matrix(1,0,0,-1,0,-1004.3622)" />
    <linearGradient
       inkscape:collect="always"
       xlink:href="#linearGradient4181"
       id="linearGradient4187"
       x1="-0.53033006"
       y1="-15.993163"
       x2="21.348898"
       y2="21.902771"
       gradientUnits="userSpaceOnUse" />
    <linearGradient
       inkscape:collect="always"
       xlink:href="#linearGradient1293-8"
       id="linearGradient4262"
       gradientUnits="userSpaceOnUse"
       gradientTransform="matrix(0.63477667,0,0,0.87500051,8.7055112,134.16979)"
       x1="24.660879"
       y1="1049.3623"
       x2="21.963976"
       y2="1039.6023" />
    <linearGradient
       inkscape:collect="always"
       xlink:href="#linearGradient1233-8"
       id="linearGradient4266"
       gradientUnits="userSpaceOnUse"
       gradientTransform="matrix(0.63477667,0,0,0.87500051,-0.07254399,134.16979)"
       x1="24.660879"
       y1="1049.3623"
       x2="21.963976"
       y2="1039.6023" />
    <linearGradient
       inkscape:collect="always"
       xlink:href="#linearGradient4336"
       id="linearGradient4351"
       gradientUnits="userSpaceOnUse"
       gradientTransform="matrix(1.1198906,0,0,1.1198906,-4.0512869,-121.00982)"
       x1="27.930717"
       y1="1030.6187"
       x2="27.930717"
       y2="1018.4211" />
    <linearGradient
       inkscape:collect="always"
       xlink:href="#linearGradient1271-4"
       id="linearGradient4405"
       gradientUnits="userSpaceOnUse"
       gradientTransform="matrix(0.63477667,0,0,0.87500051,17.483566,134.16979)"
       x1="24.660879"
       y1="1049.3623"
       x2="21.963976"
       y2="1039.6023" />
    <linearGradient
       id="linearGradient3700-46-1-4">
      <stop
         id="stop3702-4-1-6"
         style="stop-color:#454545;stop-opacity:1;"
         offset="0" />
      <stop
         id="stop3704-2-4-4"
         style="stop-color:#2ea0f0;stop-opacity:1;"
         offset="1" />
    </linearGradient>
    <linearGradient
       id="linearGradient1271-4">
      <stop
         style="stop-color:#88aa00;stop-opacity:1"
         offset="0"
         id="stop1273-2" />
      <stop
         style="stop-color:#66ff00;stop-opacity:1"
         offset="1"
         id="stop1275-7" />
    </linearGradient>
    <linearGradient
       id="linearGradient1293-8">
      <stop
         id="stop1295-8"
         offset="0"
         style="stop-color:#0088aa;stop-opacity:1" />
      <stop
         id="stop1297-6"
         offset="1"
         style="stop-color:#00ccff;stop-opacity:1" />
    </linearGradient>
    <linearGradient
       id="linearGradient1233-8">
      <stop
         id="stop1235-6"
         offset="0"
         style="stop-color:#e38141;stop-opacity:1" />
      <stop
         id="stop1237-5"
         offset="1"
         style="stop-color:#ffcf00;stop-opacity:1" />
    </linearGradient>
    <linearGradient
       inkscape:collect="always"
       xlink:href="#linearGradient3700-46-1-4"
       id="linearGradient3050"
       gradientUnits="userSpaceOnUse"
       x1="0"
       y1="-1027.3622"
       x2="48"
       y2="-1027.3622"
       gradientTransform="matrix(0.9975062,0,0,1.0000003,1.8591272e-6,2.3583979e-4)" />
    <filter
       inkscape:collect="always"
       id="filter4211">
      <feGaussianBlur
         inkscape:collect="always"
         stdDeviation="0.93821121"
         id="feGaussianBlur4213" />
    </filter>
  </defs>
  <sodipodi:namedview
     id="base"
     pagecolor="#ffffff"
     bordercolor="#666666"
     borderopacity="1.0"
     inkscape:pageopacity="0.0"
     inkscape:pageshadow="2"
     inkscape:zoom="23.953242"
     inkscape:cx="43.376698"
     inkscape:cy="42.292752"
     inkscape:document-units="px"
     inkscape:current-layer="layer1"
     showgrid="true"
     inkscape:window-width="1920"
     inkscape:window-height="909"
     inkscape:window-x="0"
     inkscape:window-y="0"
     inkscape:window-maximized="1"
     inkscape:showpageshadow="false"
     borderlayer="true">
    <sodipodi:guide
       position="3.0000048,3.0000174"
       orientation="-42,0"
       id="guide4201"
       inkscape:locked="false" />
    <sodipodi:guide
       position="3.0000048,45.000017"
       orientation="0,41.999999"
       id="guide4203"
       inkscape:locked="false" />
    <sodipodi:guide
       position="45.000004,45.000017"
       orientation="42,0"
       id="guide4205"
       inkscape:locked="false" />
    <sodipodi:guide
       position="23.375,3"
       orientation="0,-41.999999"
       id="guide4207"
       inkscape:locked="false" />
    <inkscape:grid
       type="xygrid"
       id="grid3048" />
  </sodipodi:namedview>
  <metadata
     id="metadata7">
    <rdf:RDF>
      <cc:Work
         rdf:about="">
        <dc:format>image/svg+xml</dc:format>
        <dc:type
           rdf:resource="http://purl.org/dc/dcmitype/StillImage" />
        <dc:title></dc:title>
      </cc:Work>
    </rdf:RDF>
  </metadata>
  <g
     inkscape:label="Capa 1"
     inkscape:groupmode="layer"
     id="layer1"
     transform="translate(0,-1004.3622)">
    <rect
       style="fill:url(#linearGradient3050);fill-opacity:1;stroke:none;stroke-width:1.19850302"
       id="rect2991-1-7"
       width="47.999992"
       height="48.000019"
       x="6.2785539e-06"
       y="-1052.3622"
       ry="0"
       transform="scale(1,-1)" />
    <path
       style="fill:url(#linearGradient4125);fill-opacity:1;stroke:none;stroke-width:1.19850302"
       d="m 1.6758105e-6,1044.3622 v 8 H 1.9404627 45.939835 47.880294 v -8 z"
       id="rect4123"
       inkscape:connector-curvature="0"
       sodipodi:nodetypes="ccccccc" />
    <rect
       style="fill:url(#linearGradient4262);fill-opacity:1;stroke:none;stroke-width:1.19850302"
       id="rect4260"
       width="6.982543"
       height="7.0000024"
       x="20.448877"
       y="1045.3619"
       ry="0" />
    <rect
       ry="0"
       y="1045.3619"
       x="11.670822"
       height="7.0000024"
       width="6.982543"
       id="rect4264"
       style="fill:url(#linearGradient4266);fill-opacity:1;stroke:none;stroke-width:1.19850302" />
    <rect
       ry="0"
       y="1045.3619"
       x="29.226933"
       height="7.0000024"
       width="6.982543"
       id="rect4403"
       style="fill:url(#linearGradient4405);fill-opacity:1;stroke:none;stroke-width:1.19850302" />
    <path
       style="opacity:0.5;fill:#000000;fill-opacity:1;stroke:none;stroke-width:1.19850302"
       d="m 0,1052.3622 v 0 c 23.940148,-1.2 23.940148,-1.2 47.880297,0 z"
       id="path3257"
       inkscape:connector-curvature="0"
       sodipodi:nodetypes="cccc" />
    <path
       sodipodi:nodetypes="cccc"
       inkscape:connector-curvature="0"
       id="path4027"
       d="m 0,1004.3622 v 0 c 23.940148,1.2 23.940148,1.2 47.880297,0 z"
       style="opacity:0.75;fill:#ffffff;fill-opacity:1;stroke:none;stroke-width:1.19850302" />
    <g
       id="g2402"
       transform="matrix(0.08837723,0,0,0.08059671,2.417145,1012.2642)"
       style="fill:#ffffff;filter:url(#filter4211)">
      <path
         inkscape:connector-curvature="0"
         id="path6"
         d="M 349.3,56.2 C 365.6,44 385.5,36 406,35.6 c 6.7,0.7 13.3,1.4 19.9,2.1 7.4,1.9 14.7,5 21,9.4 10,8.2 18,18.7 23.7,30.2 8.6,16.6 13.2,35.2 13.8,53.7 -0.9,6.3 -0.8,12.7 -2.5,18.8 -3.8,-5.3 -4,-12.3 -6.7,-18.1 -3.6,-7.7 -7,-15.8 -12.8,-22.1 -7.5,-10.4 -19.1,-17.6 -31.7,-19.9 -4.9,-0.1 -9.8,-1.8 -14.7,-0.6 -13.9,0.7 -26.8,7.1 -38,14.9 -3.5,3.2 -7.5,5.8 -10.9,9 -3.4,4.3 -7.6,7.9 -10.6,12.5 -10.1,12.6 -16.3,28 -20,43.7 -0.5,6.3 -1.4,12.5 -1.8,18.8 1.1,4.4 -0.8,10.1 3.5,13.2 3,1.1 6.3,0.2 9.3,-0.8 8,-3.8 15.3,-9.1 22.2,-14.8 8.2,-4.8 14.8,-11.9 22.6,-17.2 4.3,-2.4 7.6,-6 11.8,-8.3 8.1,-6 17.1,-10.6 26.3,-14.7 7.1,-2.4 14.9,-4 22.4,-2.3 8.9,2.6 16.6,9.1 20.7,17.4 6.4,12 8.9,25.6 10.2,38.9 0.3,6.9 -1.3,13.8 -1.6,20.7 -4.7,22.7 -12.1,45.2 -23.3,65.6 -4.3,7 -8.4,14.1 -14.1,20 -1.7,1.5 -3,3.8 -5.4,4.2 0.9,-4.5 3.4,-8.6 4.6,-13 1.3,-4.9 2.9,-9.7 3.2,-14.8 2.5,-7.4 2.3,-15.4 3.5,-23.1 -0.6,-8 0.6,-16.1 -0.7,-24 -0.5,-5.6 -1.1,-11.4 -3.3,-16.6 -1.4,-3.2 -2.1,-6.8 -4.6,-9.4 -2.5,-3.3 -6.4,-5 -10.2,-6.4 -3.1,0.2 -6.2,0.6 -9.3,1.2 -7.5,3.2 -14,8.3 -20.2,13.5 -5.6,3.4 -10.6,7.9 -16.8,10.3 -8.9,3.8 -19.2,6.7 -28.7,3.3 -13.3,-2.9 -24.7,-11.2 -35.1,-19.6 -4.5,-4.5 -9.5,-8.6 -12.8,-14.1 -8.8,-13.3 -14,-29.2 -13.3,-45.2 -0.2,-4.9 -0.5,-10.1 1.5,-14.7 3,-19.2 12.4,-36.9 23.4,-52.8 6,-7 11.6,-14.5 18.9,-20.1 3,-3.1 6,-6.2 9.9,-8.2 z"
         style="fill:#ffffff;stroke:#000000;stroke-width:0.09375" />
      <path
         inkscape:connector-curvature="0"
         id="path8"
         d="m 65.2,39.2 c 0.9,-1 2.1,-1.6 3.5,-1.9 -1.4,6 -4.6,11.4 -5.8,17.5 -1.2,3.4 -1.6,6.9 -2.8,10.2 -1.1,3.4 -0.4,7 -1.3,10.3 -2,6 -2.7,12.4 -2.1,18.7 -1.1,14.3 -0.8,29.4 6,42.4 2.5,3.8 7,5.7 11.3,6.9 4.1,-0.7 8.7,-0.3 12.3,-3 11.1,-5.9 19.6,-15.6 31.1,-21 7.7,-4.5 16.8,-6.1 25.6,-5.7 9.2,1.8 18.2,5 25.8,10.6 9.3,5.4 17.4,12.5 24.5,20.5 1.9,3.1 3.9,6.1 6,9.1 6.6,11.6 10,24.9 10.1,38.3 -0.5,6.9 -1.4,13.9 -2.1,20.8 -1.7,7 -4.3,13.7 -6.8,20.5 -5.8,13.6 -14.1,26.1 -23.7,37.3 -4.7,4.7 -9.1,9.7 -14.6,13.5 -17.3,15.5 -39.9,25.5 -63.2,26.2 -6.8,-0.9 -13.7,-1.4 -20.5,-2.3 -3.6,-1.3 -7.3,-2.3 -10.8,-3.7 C 59.1,300.2 51.3,294 45.9,286.1 40.1,280.1 36.4,272.6 32.6,265.3 25,248.3 20.2,229.7 20.7,211 c -1,-4.8 1.9,-9.1 2.1,-13.8 0.4,-0.1 1.2,-0.1 1.6,-0.1 2.8,10.3 6.1,20.6 11.6,29.8 2.7,5.4 7.2,9.6 10.7,14.4 7.2,7.6 16.7,12.9 27,14.8 3.8,0.5 7.5,0.6 11.3,1.2 8.2,-0.6 16.5,-2.1 24.2,-5.3 35.9,-15.6 60,-53.8 61,-92.6 -1.1,-4.1 0.5,-8.6 -1.3,-12.4 -2.2,-3.8 -7.1,-2.9 -10.6,-1.7 -7.6,2.7 -13.8,8 -20.2,12.8 -8.4,5.1 -15.2,12.2 -23.3,17.8 -4.6,2.5 -8.2,6.6 -12.8,9.1 -8.4,6.1 -17.4,11.2 -26.9,15.2 -9.3,3.4 -20.3,5.3 -29.3,0 C 37,195.7 31.6,187 28,178.1 24.5,168.8 22.3,158.9 21.6,149 c 1.1,-9.3 1.9,-18.6 3,-27.9 C 28.8,103.3 35.7,86.2 43.9,69.9 49.8,59 56.4,48.1 65.2,39.2 Z"
         style="fill:#ffffff;stroke:#000000;stroke-width:0.09375" />
      <path
         inkscape:connector-curvature="0"
         id="path10"
         d="m 233.5,53.9 c 5.1,-1.1 10.4,-1.8 15.7,-0.6 9.3,0 18.2,4.4 25.1,10.4 3.4,4.4 7.6,8.7 8.5,14.4 1.6,6.7 -0.3,13.9 -4.5,19.3 -4.9,7.6 -13.2,12.5 -21.6,15.3 -6.4,1.8 -13.1,3.4 -19.7,1.9 -7.3,0.1 -14.3,-2.6 -20.5,-6.1 -7.6,-4.7 -13.8,-12.4 -14.6,-21.5 -1.6,-6.7 2.4,-12.9 6,-18.2 6.7,-7.5 15.6,-13 25.6,-14.9 z"
         style="fill:#ffffff;stroke:#000000;stroke-width:0.09375" />
      <path
         inkscape:connector-curvature="0"
         id="path12"
         d="m 221.3,134.3 c 6.9,-8.8 18.8,-11.9 29.5,-10.4 5.3,1.8 11,3.2 15.4,6.8 7.2,3.8 10.9,11.6 12.1,19.2 -0.8,9 -2.6,18 -1.8,27 1.7,18.9 11.7,35.8 22.8,50.8 5.3,8.9 13.5,15.8 18.7,24.9 -10.2,-2 -20.2,-5 -29.9,-8.5 -12,-4 -23.2,-10.3 -32.9,-18.3 -5.3,-4.7 -11.3,-8.8 -15.3,-14.7 -7.5,-8 -13.1,-17.5 -17.5,-27.4 -4.6,-11.6 -8,-24.2 -6.6,-36.7 1.3,-4.4 2.7,-9 5.5,-12.7 z"
         style="fill:#ffffff;stroke:#000000;stroke-width:0.09375" />
    </g>
  </g>
</svg>
